<?xml version="1.0" encoding="utf-8"?>
<!-- Generator: Adobe Illustrator 17.0.0, SVG Export Plug-In . SVG Version: 6.00 Build 0)  -->
<!DOCTYPE svg PUBLIC "-//W3C//DTD SVG 1.1 Tiny//EN" "http://www.w3.org/Graphics/SVG/1.1/DTD/svg11-tiny.dtd">
<svg version="1.1" baseProfile="tiny" id="Layer_1" xmlns="http://www.w3.org/2000/svg" xmlns:xlink="http://www.w3.org/1999/xlink"
	 x="0px" y="0px" viewBox="0 0 600 600" width="235px" height="228px" xml:space="preserve" preserveAspectRatio="xMinYMin none">
<g>
	<g>
		<path fill="#BF1924" d="M379.617,332.827v29.195l25.493-14.557l-0.01-29.342L379.617,332.827L379.617,332.827z"/>
		<path fill="#BF1924" d="M407.992,283.932v29.192l25.493-14.551l-0.01-29.339L407.992,283.932L407.992,283.932z"/>
		<path fill="#BF1924" d="M436.303,332.779v29.192l25.489-14.553l-0.01-29.342L436.303,332.779L436.303,332.779z"/>
	</g>
	<g>
		<g>
			<g>
				<path fill="#E3202D" d="M352.211,315.629l25.67,14.741l25.585-14.782l-25.684-14.604L352.211,315.629L352.211,315.629z"/>
			</g>
		</g>
		<g>
			<g>
				<path fill="#E3202D" d="M380.812,266.359l25.657,14.746l25.595-14.787l-25.687-14.608L380.812,266.359L380.812,266.359z"/>
			</g>
		</g>
		<g>
			<g>
				<path fill="#E3202D" d="M409.334,315.574l25.66,14.748l25.592-14.789l-25.688-14.598L409.334,315.574L409.334,315.574z"/>
			</g>
		</g>
	</g>
</g>
<g>
	<path fill="#FFFFFF" d="M291.417,281.643h-7.353c-0.357,0-0.687,0.193-0.862,0.505l-25.714,46.241l-25.714-46.241
		c-0.174-0.312-0.504-0.505-0.861-0.505h-7.353c-0.499,0-0.919,0.372-0.98,0.868l-9.542,78.478c-0.072,0.588,0.387,1.107,0.98,1.107
		h13.323c0.494,0,0.913-0.366,0.978-0.856l5.719-42.571l22.591,40.048c0.378,0.669,1.342,0.669,1.72,0l22.591-40.048l5.719,42.571
		c0.066,0.49,0.484,0.856,0.978,0.856h13.323c0.593,0,1.052-0.518,0.98-1.107l-9.542-78.478
		C292.337,282.015,291.916,281.643,291.417,281.643z"/>
	<path fill="#FFFFFF" d="M167.635,281.641h-28.362c-0.526,0-0.953,0.427-0.953,0.953l0.007,78.549c0,0.526,0.427,0.953,0.953,0.953
		h28.355c22.182,0,40.34-18.042,40.34-40.347C207.975,299.683,189.816,281.641,167.635,281.641z M166.255,348.073h-13.101v-52.527
		h13.101c14.943,0,25.859,11.266,25.859,26.202C192.114,336.811,181.198,348.073,166.255,348.073z"/>
	<path fill="#FFFFFF" d="M325.963,362.095h-12.963c-0.526,0-0.953-0.427-0.953-0.953v-78.547c0-0.526,0.427-0.953,0.953-0.953
		h12.963c0.526,0,0.953,0.427,0.953,0.953v78.547C326.915,361.669,326.489,362.095,325.963,362.095z"/>
</g>
</svg>
